<?xml version="1.0" standalone="no"?>
<!DOCTYPE svg PUBLIC "-//W3C//DTD SVG 20010904//EN"
 "http://www.w3.org/TR/2001/REC-SVG-20010904/DTD/svg10.dtd">
<svg version="1.0" xmlns="http://www.w3.org/2000/svg"
 width="512.000000pt" height="512.000000pt" viewBox="0 0 512.000000 512.000000"
 preserveAspectRatio="xMidYMid meet">
<metadata>
Created by potrace 1.11, written by Peter Selinger 2001-2013
</metadata>
<g transform="translate(0.000000,512.000000) scale(0.100000,-0.100000)"
fill="#000000" stroke="none">
<path d="M1099 4946 c-2 -2 -35 -7 -74 -10 -124 -11 -145 -15 -222 -36 -225
-62 -423 -219 -517 -412 -16 -32 -32 -55 -37 -52 -5 3 -6 -2 -3 -10 3 -8 0
-24 -6 -36 -12 -22 -18 -43 -27 -92 -3 -17 -10 -25 -17 -21 -7 4 -7 1 1 -7 8
-9 9 -19 2 -32 -5 -10 -7 -23 -4 -28 3 -6 3 -10 -2 -10 -4 0 -10 -24 -13 -53
-7 -82 -6 -3094 2 -3167 3 -36 9 -73 13 -82 4 -9 4 -22 0 -28 -3 -5 -2 -10 3
-10 8 0 38 -123 36 -147 -1 -7 2 -11 6 -8 8 5 30 -39 30 -60 0 -8 5 -15 11
-15 6 0 8 -7 5 -16 -3 -8 -2 -13 3 -10 7 5 17 -10 24 -34 0 -3 11 -16 24 -30
14 -15 18 -27 12 -31 -6 -3 -1 -9 11 -12 13 -3 19 -10 15 -17 -3 -6 -2 -9 3
-8 5 2 21 -9 35 -24 14 -16 23 -28 19 -29 -4 0 3 -4 16 -10 13 -5 20 -13 17
-19 -4 -6 -3 -9 2 -8 12 4 94 -58 86 -65 -3 -4 4 -7 16 -7 12 0 20 -4 17 -9
-3 -5 2 -8 12 -7 9 0 16 -4 15 -9 -1 -6 6 -11 15 -12 36 -3 93 -34 85 -46 -5
-8 -2 -8 9 1 11 9 18 10 23 2 3 -5 1 -10 -6 -10 -7 0 -9 -3 -6 -6 4 -4 13 -1
22 6 10 8 15 9 15 2 0 -7 7 -9 17 -5 9 4 14 2 10 -3 -4 -6 6 -9 24 -6 17 2 29
0 29 -7 0 -6 7 -8 17 -4 12 5 14 3 8 -8 -7 -11 -6 -12 6 -2 12 10 21 9 42 -2
15 -8 25 -9 21 -4 -4 8 4 9 27 3 19 -4 47 -6 62 -5 16 1 26 -2 23 -7 -2 -4 11
-6 30 -4 20 3 41 -2 51 -9 12 -10 15 -10 9 -2 -5 9 1 13 20 13 20 0 24 -3 16
-13 -8 -10 -6 -13 7 -13 11 0 17 6 14 13 -6 15 36 14 56 -1 11 -8 13 -8 7 2
-4 6 -2 12 3 12 6 0 11 -6 11 -12 0 -9 3 -9 8 -3 10 15 55 16 64 2 6 -9 8 -9
8 1 0 6 5 12 11 12 5 0 7 -6 3 -12 -6 -10 -4 -10 7 0 17 16 29 15 29 -2 0 -8
4 -17 9 -20 5 -4 7 3 4 14 -6 23 15 27 36 8 11 -10 13 -10 7 0 -4 7 -1 12 8
12 9 0 16 -4 16 -10 0 -5 5 -10 11 -10 5 0 7 5 4 10 -3 6 1 10 10 10 10 0 14
-5 9 -12 -6 -10 -4 -10 7 0 15 13 43 17 35 4 -3 -5 1 -9 9 -9 8 0 12 4 9 9 -9
14 9 9 30 -10 16 -13 18 -14 8 -1 -11 14 -9 16 13 17 16 0 24 -5 22 -12 -3 -6
4 -12 14 -12 13 0 15 4 8 13 -8 9 -5 11 13 10 26 -2 50 -21 40 -32 -4 -5 -1
-5 6 -1 10 6 10 11 1 22 -14 17 2 19 20 2 8 -8 11 -8 8 -2 -4 7 3 11 18 11 14
0 25 -3 25 -8 0 -5 5 -9 11 -9 5 0 8 4 5 9 -3 5 6 8 19 8 14 0 25 -3 25 -8 0
-5 5 -9 11 -9 5 0 8 4 4 9 -7 13 36 10 54 -3 11 -8 13 -8 7 2 -4 7 -1 12 8 12
9 0 16 -4 16 -10 0 -5 5 -10 11 -10 5 0 7 5 4 10 -3 6 1 10 10 10 10 0 14 -5
9 -12 -6 -10 -4 -10 7 0 15 13 43 17 35 4 -3 -5 1 -9 9 -9 8 0 12 4 9 9 -3 4
4 8 15 8 12 0 21 -6 21 -12 0 -9 3 -10 8 -2 4 6 16 11 27 11 11 0 23 -5 27
-11 5 -8 8 -7 8 2 0 6 5 12 11 12 5 0 7 -6 3 -12 -5 -9 -2 -9 9 1 14 11 20 11
32 1 10 -8 19 -9 28 -3 6 5 23 10 37 11 19 1 21 -1 10 -8 -9 -6 -10 -10 -3
-10 6 0 14 4 17 9 3 5 17 8 32 9 18 0 22 -3 13 -9 -8 -5 -9 -9 -3 -9 5 0 16 6
22 12 10 10 17 10 33 0 12 -8 18 -9 14 -3 -3 6 1 11 9 11 9 0 16 -4 16 -10 0
-5 5 -10 11 -10 5 0 7 4 4 10 -3 5 1 10 10 10 10 0 14 -5 9 -12 -6 -10 -4 -10
7 0 15 13 43 17 35 4 -3 -5 1 -9 9 -9 8 0 12 4 9 9 -9 14 9 9 30 -10 16 -13
18 -14 8 -1 -11 14 -9 17 13 17 16 0 24 -5 22 -12 -3 -6 4 -12 14 -12 13 0 15
4 8 13 -8 9 -5 11 13 10 26 -2 50 -21 40 -32 -4 -5 -1 -5 6 -1 10 6 10 11 1
22 -14 17 2 19 20 1 8 -7 11 -7 8 -1 -4 7 3 11 18 11 14 0 25 -3 25 -8 0 -5 5
-9 11 -9 5 0 8 4 5 9 -3 5 6 8 19 8 14 0 25 -3 25 -8 0 -5 5 -9 11 -9 5 0 8 4
4 9 -7 13 36 10 54 -3 11 -8 13 -8 7 1 -4 8 -1 13 8 13 9 0 16 -4 16 -10 0 -5
5 -10 11 -10 5 0 7 4 4 10 -3 5 1 10 10 10 10 0 14 -5 9 -12 -6 -10 -4 -10 7
-1 15 14 43 18 35 5 -3 -5 1 -9 9 -9 8 0 12 4 9 9 -3 4 4 8 15 8 12 0 21 -6
21 -12 0 -9 3 -10 8 -2 4 6 16 11 27 11 11 0 23 -5 27 -11 5 -8 8 -7 8 2 0 6
5 12 11 12 5 0 7 -6 3 -12 -5 -9 -2 -9 9 1 14 11 20 11 32 1 10 -8 19 -9 28
-3 6 5 23 10 37 11 19 1 21 -1 10 -8 -9 -6 -10 -10 -3 -10 6 0 14 4 17 9 3 5
17 8 32 9 18 0 22 -3 13 -9 -8 -5 -9 -9 -3 -9 5 0 16 6 22 12 10 10 17 10 33
0 12 -8 18 -9 14 -3 -3 6 1 11 9 11 9 0 16 -4 16 -10 0 -5 5 -10 11 -10 5 0 7
4 4 10 -3 5 1 10 10 10 10 0 14 -5 9 -12 -6 -10 -4 -10 7 -1 15 14 43 18 35 5
-3 -5 1 -9 9 -9 8 0 12 4 9 9 -9 14 9 9 30 -10 16 -13 18 -14 8 -1 -11 14 -9
17 13 17 16 -1 24 -5 22 -12 -3 -6 4 -12 14 -12 13 0 15 4 8 13 -8 9 -5 11 13
10 26 -2 50 -21 40 -32 -4 -5 -1 -5 6 -1 10 6 10 11 1 22 -9 11 -8 14 5 14 9
0 16 -6 16 -12 0 -9 3 -9 8 -3 9 14 55 17 47 4 -4 -5 -1 -9 4 -9 6 0 11 4 11
8 0 5 28 8 63 8 46 -1 61 -4 59 -14 -1 -8 2 -11 8 -7 6 3 8 11 5 16 -4 5 1 9
10 9 10 0 14 -5 9 -12 -6 -10 -4 -10 7 -1 7 7 20 13 28 13 14 0 14 -1 1 -10
-9 -6 -10 -10 -3 -10 6 0 15 4 18 10 3 5 19 10 35 10 24 0 28 -4 25 -21 -3
-12 -1 -18 3 -15 4 4 8 12 8 17 4 30 6 32 14 14 7 -15 9 -16 9 -4 1 11 10 17
25 17 19 0 23 -5 21 -20 -2 -10 0 -16 6 -13 5 4 7 10 4 15 -8 13 11 21 53 24
21 2 48 7 60 10 14 5 29 3 39 -6 9 -7 14 -8 10 -2 -8 13 19 27 34 18 5 -3 9 0
9 5 0 6 3 10 8 9 4 -1 19 2 33 6 14 4 32 8 41 10 9 1 23 8 32 15 9 7 24 10 33
7 10 -4 14 -4 10 0 -8 8 22 33 42 34 8 0 11 -6 7 -16 -3 -9 -2 -12 5 -9 6 4 8
13 5 21 -8 20 9 26 39 14 17 -7 24 -7 20 0 -3 6 -14 10 -23 10 -12 1 -9 7 13
23 16 12 31 20 32 17 1 -3 10 5 18 18 17 23 42 32 29 9 -4 -6 -3 -8 1 -4 5 4
10 14 11 21 1 8 19 33 40 56 22 23 50 55 64 70 14 15 26 33 28 41 2 8 8 19 14
24 7 7 8 2 3 -15 -4 -14 -4 -21 1 -17 4 4 8 20 9 35 0 15 6 26 13 25 6 -2 9 4
6 12 -4 8 -1 15 6 15 6 0 8 4 5 10 -3 5 2 24 11 42 18 34 32 78 40 118 2 14 7
36 11 50 3 14 5 31 4 37 -1 7 2 13 6 13 4 0 8 21 8 48 -1 26 3 52 7 58 7 10 3
3060 -4 3147 -2 20 -7 37 -12 37 -5 0 -7 3 -3 6 3 3 2 16 -3 29 -6 15 -4 27 3
35 9 10 9 11 0 6 -8 -4 -13 -2 -14 6 -3 60 -59 192 -117 277 -142 209 -352
337 -607 367 -22 3 -51 8 -65 12 -26 6 -3014 15 -3021 8z"/>
<path d="M549 283 c-13 -16 -12 -17 4 -4 16 13 21 21 13 21 -2 0 -10 -8 -17
-17z"/>
<path d="M650 240 c0 -5 5 -10 11 -10 5 0 7 5 4 10 -3 6 -8 10 -11 10 -2 0 -4
-4 -4 -10z"/>
<path d="M800 180 c-9 -6 -10 -10 -3 -10 6 0 15 5 18 10 8 12 4 12 -15 0z"/>
<path d="M975 160 c3 -5 8 -10 11 -10 2 0 4 5 4 10 0 6 -5 10 -11 10 -5 0 -7
-4 -4 -10z"/>
<path d="M4126 158 c3 -5 10 -6 15 -3 13 9 11 12 -6 12 -8 0 -12 -4 -9 -9z"/>
<path d="M1906 145 c-11 -8 -15 -15 -9 -15 6 0 16 7 23 15 16 19 11 19 -14 0z"/>
<path d="M2386 145 c-11 -8 -15 -15 -9 -15 6 0 16 7 23 15 16 19 11 19 -14 0z"/>
<path d="M2866 145 c-11 -8 -15 -15 -9 -15 6 0 16 7 23 15 16 19 11 19 -14 0z"/>
<path d="M3346 145 c-11 -8 -15 -15 -9 -15 6 0 16 7 23 15 16 19 11 19 -14 0z"/>
<path d="M3810 151 c0 -6 4 -13 10 -16 6 -3 7 1 4 9 -7 18 -14 21 -14 7z"/>
<path d="M3837 149 c7 -7 15 -10 18 -7 3 3 -2 9 -12 12 -14 6 -15 5 -6 -5z"/>
<path d="M2075 140 c-3 -5 -1 -10 4 -10 6 0 11 5 11 10 0 6 -2 10 -4 10 -3 0
-8 -4 -11 -10z"/>
<path d="M2196 133 c-6 -14 -5 -15 5 -6 7 7 10 15 7 18 -3 3 -9 -2 -12 -12z"/>
<path d="M3035 140 c-3 -5 -1 -10 4 -10 6 0 11 5 11 10 0 6 -2 10 -4 10 -3 0
-8 -4 -11 -10z"/>
<path d="M3156 133 c-6 -14 -5 -15 5 -6 7 7 10 15 7 18 -3 3 -9 -2 -12 -12z"/>
<path d="M4240 140 c-9 -6 -10 -10 -3 -10 6 0 15 5 18 10 8 12 4 12 -15 0z"/>
<path d="M1495 131 c-3 -5 -2 -12 3 -15 5 -3 9 1 9 9 0 17 -3 19 -12 6z"/>
<path d="M1975 131 c-3 -5 -2 -12 3 -15 5 -3 9 1 9 9 0 17 -3 19 -12 6z"/>
<path d="M2455 131 c-3 -5 -2 -12 3 -15 5 -3 9 1 9 9 0 17 -3 19 -12 6z"/>
<path d="M2935 131 c-3 -5 -2 -12 3 -15 5 -3 9 1 9 9 0 17 -3 19 -12 6z"/>
<path d="M3415 131 c-3 -5 -2 -12 3 -15 5 -3 9 1 9 9 0 17 -3 19 -12 6z"/>
<path d="M1376 122 c-3 -5 1 -9 9 -9 8 0 12 4 9 9 -3 4 -7 8 -9 8 -2 0 -6 -4
-9 -8z"/>
</g>
</svg>
